<?xml version="1.0" encoding="iso-8859-1"?>
<!-- Generator: Adobe Illustrator 19.0.0, SVG Export Plug-In . SVG Version: 6.00 Build 0)  -->
<svg version="1.1" id="Capa_1" xmlns="http://www.w3.org/2000/svg" xmlns:xlink="http://www.w3.org/1999/xlink" x="0px" y="0px"
	 viewBox="0 0 512 512" style="enable-background:new 0 0 512 512;" xml:space="preserve">
<circle style="fill:#D71207;" cx="256" cy="256" r="256"/>
<path style="fill:#FFFFFF;" d="M511.585,270.596c-2.382,42.444-15.099,82.129-35.694,116.569c-0.01,0-0.01,0-0.01,0.01
	c-34.011,46.634-89.078,76.936-151.218,76.936H160.635c-29.08,0-56.341-7.805-79.799-21.441
	C38.905,403.319,10.233,349.998,2.26,290.115c7.523-80.854,75.557-144.144,158.375-144.144c9.634,0,19.069,0.867,28.233,2.508
	c34.095-35.986,82.317-58.431,135.795-58.431C425.789,90.048,508.179,170.307,511.585,270.596z"/>
<g>
	<path style="fill:#D71207;" d="M167.219,432.783c-31.885,0.002-62.922-12.507-86.301-35.888l-3.681-3.681
		c-23.1-23.1-35.821-53.813-35.821-86.481c0-32.669,12.722-63.382,35.823-86.483l0.46-0.46c23.1-23.1,53.813-35.822,86.483-35.822
		s63.382,12.722,86.483,35.822l50.142,50.142c6.352,6.351,6.352,16.649,0,23.001c-6.351,6.352-16.65,6.352-23.001,0l-50.142-50.142
		c-16.957-16.957-39.501-26.295-63.482-26.295s-46.525,9.338-63.482,26.295l-0.46,0.46c-16.957,16.957-26.296,39.502-26.296,63.483
		s9.339,46.525,26.296,63.482l3.681,3.681c23.967,23.966,58.91,32.371,91.189,21.935c8.548-2.766,17.715,1.924,20.479,10.471
		s-1.925,17.715-10.471,20.479C192.638,430.816,179.859,432.782,167.219,432.783z"/>
	<path style="fill:#D71207;" d="M325.417,428.987c-38.275,0-76.55-14.569-105.688-43.707l-77.573-77.573
		c-6.352-6.351-6.352-16.649,0-23.001c6.351-6.352,16.65-6.352,23.001,0l77.573,77.573c45.594,45.596,119.782,45.592,165.376,0
		c45.594-45.594,45.594-119.782,0-165.376c-39.113-39.113-100.943-45.42-147.019-14.997c-7.499,4.949-17.586,2.885-22.534-4.611
		c-4.949-7.495-2.884-17.585,4.611-22.533c58.916-38.899,137.956-30.847,187.944,19.14c58.276,58.277,58.276,153.101,0,211.378
		C401.968,414.418,363.691,428.987,325.417,428.987z"/>
</g>
<g>
</g>
<g>
</g>
<g>
</g>
<g>
</g>
<g>
</g>
<g>
</g>
<g>
</g>
<g>
</g>
<g>
</g>
<g>
</g>
<g>
</g>
<g>
</g>
<g>
</g>
<g>
</g>
<g>
</g>
</svg>
